<svg height="48" viewBox="0 0 48 48" width="48" xmlns="http://www.w3.org/2000/svg"><path d="m24 21.153c0 1.572-1.2765 2.847-2.853 2.847h-18.294c-1.575 0-2.853-1.275-2.853-2.847v-18.3075c0-1.572 1.278-2.8455 2.853-2.8455h18.294c1.5765 0 2.853 1.2735 2.853 2.8455zm-4.4509157-8.8893601c0 4.01068-3.2705694 7.2752566-7.2917368 7.2752566-4.02116735 0-7.29173678-3.2645766-7.29173678-7.2752566 0-.6652005.08989197-1.3109245.2591885-1.9236881h-2.24280459v10.4244719c0 .3700553.29963989.6696952.66969516.6696952h17.20981721c.3715535 0 .6711934-.2996399.6711934-.6696952v-10.4244719h-2.2428046c.1692965.6127636.2591885 1.2584876.2591885 1.9236881zm-1.9836161-4.71063871h3.2406054c.3700553 0 .6711934-.29963989.6711934-.66819696v-3.23461264c0-.36855707-.3011381-.66819696-.6711934-.66819696h-3.2406054c-.3700553 0-.6711934.29963989-.6711934.66819696v3.23461264c0 .36855707.3011381.66819696.6711934.66819696zm-5.3082705 9.30951181c2.5454409 0 4.6099597-2.058526 4.6099597-4.5994723 0-2.53944813-2.0645188-4.59797419-4.6099597-4.59797419s-4.60995976 2.05852606-4.60995976 4.59797419c0 2.5409463 2.06451886 4.5994723 4.60995976 4.5994723z" fill="#fff" fill-rule="evenodd" transform="translate(12 12)"/></svg>