<svg height="48" viewBox="0 0 48 48" width="48" xmlns="http://www.w3.org/2000/svg"><path d="m6.12935053 8.4568171v17.5427172h-5.78714242v-17.5427172zm.3811558-5.42667013c0 1.68442407-1.25672777 3.03224276-3.27461144 3.03224276h-.03698298c-1.94287756 0-3.19891191-1.34781869-3.19891191-3.03224276 0-1.7200523 1.29428861-3.03014697 3.27403358-3.03014697 1.97974498 0 3.19891192 1.31009467 3.23647275 3.03014697zm20.48949367 12.91092943-.0002311 10.0584579h-5.7869113v-9.3853636c0-2.357402-.8374333-3.9660287-2.9324034-3.9660287-1.5988203 0-2.5511319 1.0844492-2.9693863 2.1318729-.153017.3753773-.1905779.8983905-.1905779 1.4226845v9.7973006h-5.78783583s.07627739-15.8965993 0-17.54271717h5.78783583v2.48477877c.7680902-1.19447757 2.1437414-2.89718148 5.2163333-2.89718148 3.8082065 0 6.6631767 2.50783228 6.6631767 7.89619628z" fill="#fff" fill-rule="evenodd" transform="translate(12 10)"/></svg>