<svg height="48" viewBox="0 0 48 48" width="48" xmlns="http://www.w3.org/2000/svg"><path d="m11.851 17.3445c-1.488 0-2.889-.804-3.3675-1.719 0 0-.801 3.177-.969 3.7905-.597 2.166-2.3535 4.3335-2.49 4.5105-.0945.1245-.3045.0855-.327-.078-.0375-.276-.486-3.0105.042-5.2395.264-1.119 1.773-7.512 1.773-7.512s-.4395-.8805-.4395-2.181c0-2.043 1.1835-3.5685 2.658-3.5685 1.254 0 1.8585.942 1.8585 2.07 0 1.26-.8025 3.1455-1.2165 4.8915-.3465 1.4625.7335 2.655 2.1765 2.655 2.61 0 4.3695-3.354 4.3695-7.329 0-3.021-2.034-5.283-5.736-5.283-4.1805 0-6.7875 3.1185-6.7875 6.603 0 1.2.3555 2.0475.9105 2.703.255.3015.291.423.198.768-.0675.255-.2175.864-.282 1.107-.0915.3495-.3735.474-.69.345-1.9245-.786-2.823-2.8965-2.823-5.2665 0-3.9165 3.303-8.6115 9.852-8.6115 5.265 0 8.7285 3.807 8.7285 7.8975 0 5.4075-3.0075 9.447-7.4385 9.447z" fill="#333f48" fill-rule="evenodd" transform="translate(14 12)"/></svg>