<svg height="48" viewBox="0 0 48 48" width="48" xmlns="http://www.w3.org/2000/svg"><path d="m22.7377551 5.59454098c.0091837.21244705.0153061.4248941.0153061.64035458 0 6.53463014-5.0540816 14.07122684-14.29591834 14.07122684-2.8377551 0-5.47806123-.8181471-7.70204082-2.2209003.39336735.0452015.79285714.0678022 1.19846939.0678022 2.35408163 0 4.51989796-.7895195 6.24030612-2.1169369-2.19948979-.0391746-4.05459184-1.4690487-4.69438775-3.4338072.30765306.0572552.62142857.0873895.94591836.0873895.45765306 0 .90153062-.0602686 1.3239796-.1732724-2.2989796-.4535217-4.03010205-2.4529347-4.03010205-4.8486142v-.0632821c.67653062.3706523 1.45255102.59364637 2.27602041.61926055-1.34846939-.88745611-2.23622449-2.40170636-2.23622449-4.11634992 0-.90704343.24795919-1.75683162.68112245-2.4875892 2.47806123 2.99233928 6.18061225 4.96161796 10.35612242 5.16803814-.0857143-.361612-.130102-.73979788-.130102-1.12702406 0-2.7316773 2.25-4.9465508 5.0234694-4.9465508 1.4464285 0 2.7520408.60117995 3.6673469 1.56246518 1.144898-.22148735 2.2209184-.632821 3.1913265-1.19934646-.375 1.15414496-1.1724489 2.12296377-2.2086734 2.73619745 1.0163265-.12053733 1.9836734-.38571946 2.8852041-.77897251-.6734694.99141956-1.5260204 1.86230179-2.5071429 2.55991161z" fill="#fff" fill-rule="evenodd" transform="translate(11 13)"/></svg>