<svg height="48" viewBox="0 0 48 48" width="48" xmlns="http://www.w3.org/2000/svg"><path d="m16 0c8.8366154 0 16 7.16338462 16 16 0 8.8366154-7.1633846 16-16 16-8.83661538 0-16-7.1633846-16-16 0-8.83661538 7.16338462-16 16-16zm9.6244615 16.7272308v-1.4606154c0-1.5576923-.192-3.1153846-.192-3.1153846s-.1883077-1.3264616-.7652307-1.9104616c-.7321539-.7667692-1.5526154-.77046151-1.9286154-.81538458-2.6936923-.19461539-6.7341539-.19461539-6.7341539-.19461539h-.0084615s-4.0406154 0-6.73430769.19446154c-.37630769.04492308-1.19630769.04861538-1.92861539.81538463-.57707692.5838461-.76507692 1.9104615-.76507692 1.9104615s-.19246154 1.5576923-.19246154 3.1153846v1.4603077c0 1.558.19246154 3.1153846.19246154 3.1153846s.188 1.3263077.76507692 1.9107693c.7323077.7667692 1.69415385.7427692 2.12246154.8229231 1.54000004.1476923 6.54446154.1933846 6.54446154.1933846s4.0447692-.006 6.7386154-.2006154c.376-.0447692 1.1964615-.0489231 1.9286154-.8155385.576923-.5841538.7652307-1.9104615.7652307-1.9104615s.192-1.5576923.192-3.1153846zm-11.9092527 1.4812307-.0009231-5.4084615 5.2010769 2.7136923z" fill="#fff" fill-rule="evenodd" transform="translate(8 8)"/></svg>