<svg xmlns="http://www.w3.org/2000/svg" width="23" height="17" viewBox="0 0 23 17" xmlns:xlink="http://www.w3.org/1999/xlink">
  <title>Email</title>
  <g fill="none" fill-rule="evenodd" transform="translate(.167 .667)">
    <path fill="#384048" d="M21.9912849,0.958046973 C21.9927459,0.964895383 21.9949374,0.971469858 21.9963984,0.978318268 C22.0128346,1.00571191 22.0222397,1.03739722 22.0222397,1.07054353 L22.0222397,1.07054353 L22.0222397,1.23271389 L22.002151,14.2446938 C22.002151,15.3404395 21.2716539,16.0709366 20.1759082,16.0709366 L20.1759082,16.0709366 L1.91348023,16.0709366 C0.817734551,16.0709366 0.0872374311,15.3404395 0.0872374311,14.2446938 L0.0872374311,14.2446938 L0.0671487603,1.1786571 L0.0671487603,1.01657805 C0.0671487603,1.00580322 0.0698881245,0.995667575 0.0718056795,0.985349303 L0.0718056795,0.985349303 L1.33401339,1.9623892 L1.33757456,1.96512856 L1.34122705,1.96786793 L9.74194393,8.35971773 L9.7552755,8.36985338 L9.76888101,8.37953246 C10.1686456,8.66479159 10.7060175,8.76596544 11.0446942,8.76596544 C11.4096689,8.76596544 11.9859398,8.62689705 12.3349348,8.36884894 L12.3349348,8.36884894 L12.3435181,8.36254841 L12.3519188,8.35615656 L20.6577624,1.96704612 Z M20.7908553,0.000436269279 C20.9198739,0.00263029709 21.1282938,0.0158578751 21.3150272,0.0956038107 L21.3150272,0.0956038107 L19.9932839,1.09574568 L11.6838792,7.48759548 C11.5709261,7.57105478 11.2429329,7.67021976 11.0446942,7.67021976 C10.8465469,7.67021976 10.5550785,7.59433937 10.4055093,7.48759548 L10.4055093,7.48759548 L2.00479237,1.09574568 L0.753998677,0.127654372 C0.894528061,0.0583484576 1.06445995,1.65882478e-10 1.18298311,1.65882478e-10 L1.18298311,1.65882478e-10 Z"/>
  </g>
</svg>
