<svg xmlns="http://www.w3.org/2000/svg" width="22" height="22" viewBox="0 0 22 22" xmlns:xlink="http://www.w3.org/1999/xlink">
  <title>Phone</title>
  <g fill="none" fill-rule="evenodd" transform="translate(.167 .167)">
    <path fill="#384048" d="M3.01374003,2.0819697 C3.49849282,2.0819697 3.86755183,2.32755981 4.13708931,2.5069059 L4.13708931,2.5069059 L4.2292504,2.56827751 L7.09754386,5.32025518 C7.63122807,5.77121212 7.94793461,6.43769537 7.94793461,7.11651515 C7.94793461,7.77885167 7.70338118,8.406874 7.27606061,8.8442504 L7.27606061,8.8442504 L6.38990431,9.79405901 C6.70992823,10.3831021 7.41663477,11.5396252 8.55937002,12.6798724 C9.80359649,13.9214035 11.0620255,14.7187161 11.7496571,15.1062281 L11.7496571,15.1062281 L13.065933,13.9023285 C13.4287719,13.5516188 13.8950718,13.3588995 14.3824163,13.3588995 C14.8704864,13.3588995 15.3370973,13.5519298 15.7001435,13.9034689 L15.7001435,13.9034689 L19.0381579,16.9700797 C19.3824402,17.2302871 19.5879107,17.637185 19.5879107,18.0822329 C19.5879107,18.5139075 19.3944657,18.9098166 19.0685327,19.1706459 L19.0685327,19.1706459 L19.0511164,19.1867145 C17.8448325,20.2978309 16.2578788,21.5734689 14.6808772,21.5734689 C12.6429665,21.5734689 9.41774322,21.0586523 4.95679426,16.6071372 C1.26827751,12.9263955 -0.215526316,9.95671451 0.148763955,6.98205742 C0.292759171,5.48031898 1.20752791,3.64953748 1.61017544,2.95807018 C1.83627592,2.44470494 2.38022329,2.0819697 3.01374003,2.0819697 Z M9.00275917,0 C15.9856459,0 21.6666667,5.68185008 21.6666667,12.6657735 C21.6666667,13.0092265 21.3882137,13.2877831 21.0446571,13.2877831 C20.7011005,13.2877831 20.4226475,13.0092265 20.4226475,12.6657735 C20.4226475,6.36782297 15.299673,1.24401914 9.00275917,1.24401914 C8.65920255,1.24401914 8.3807496,0.965566188 8.3807496,0.622009569 C8.3807496,0.278452951 8.65920255,0 9.00275917,0 Z M9.64145933,3.17981659 C12.0309091,3.17981659 14.2729426,4.0930303 15.9543381,5.75130781 C17.6434051,7.41694577 18.5736204,9.64653907 18.5736204,12.0291467 C18.5736204,12.3727033 18.2951675,12.6511563 17.9516108,12.6511563 C17.6081579,12.6511563 17.3296013,12.3727033 17.3296013,12.0291467 C17.3296013,9.98211324 16.530941,8.06704944 15.080933,6.63694577 C13.6337241,5.20984848 11.701866,4.42383573 9.64145933,4.42383573 C9.29790271,4.42383573 9.01944976,4.14527911 9.01944976,3.80182616 C9.01944976,3.45826954 9.29790271,3.17981659 9.64145933,3.17981659 Z M10.3157177,6.51586124 C13.0394976,6.51586124 15.2554067,8.73208134 15.2554067,11.4561722 C15.2554067,11.7996252 14.9769537,12.0781818 14.6333971,12.0781818 C14.2899442,12.0781818 14.0113876,11.7996252 14.0113876,11.4561722 C14.0113876,9.41805423 12.3535247,7.75988038 10.3157177,7.75988038 C9.97216108,7.75988038 9.69370813,7.48142743 9.69370813,7.13787081 C9.69370813,6.79441786 9.97216108,6.51586124 10.3157177,6.51586124 Z"/>
  </g>
</svg>
